<?xml version="1.0" standalone="no"?>
<!DOCTYPE svg PUBLIC "-//W3C//DTD SVG 20010904//EN"
 "http://www.w3.org/TR/2001/REC-SVG-20010904/DTD/svg10.dtd">
<svg version="1.0" xmlns="http://www.w3.org/2000/svg"
 width="700.000000pt" height="700.000000pt" viewBox="0 0 700.000000 700.000000"
 preserveAspectRatio="xMidYMid meet">
<metadata>
Created by potrace 1.11, written by Peter Selinger 2001-2013
</metadata>
<g transform="translate(0.000000,700.000000) scale(0.100000,-0.100000)"
fill="#000000" stroke="none">
<path d="M1310 3490 l0 -900 588 2 587 3 3 178 2 177 -375 0 -375 0 0 720 0
720 -215 0 -215 0 0 -900z"/>
<path d="M2820 4384 c0 -4 146 -273 325 -598 l325 -592 0 -302 0 -302 215 0
215 0 0 301 0 302 320 583 c176 320 323 590 326 598 5 14 -20 16 -235 16
l-241 0 -187 -375 c-104 -206 -193 -375 -198 -375 -6 0 -94 169 -198 375
l-187 375 -240 0 c-132 0 -240 -3 -240 -6z"/>
<path d="M5260 3490 l0 -900 215 0 215 0 0 900 0 900 -215 0 -215 0 0 -900z"/>
</g>
</svg>
